HIERARCHY
ROOT Hips
{
	OFFSET -0.001795 -0.223333 0.028219
	CHANNELS 6 Xposition Yposition Zposition Zrotation Yrotation Xrotation 
	JOINT LeftUpLeg
	{
		OFFSET 0.069520 -0.091406 -0.006815
		CHANNELS 3 Zrotation Yrotation Xrotation
		JOINT LeftLeg
		{
			OFFSET 0.034277 -0.375199 -0.004496
			CHANNELS 3 Zrotation Yrotation Xrotation
			JOINT LeftFoot
			{
				OFFSET -0.013596 -0.397961 -0.043693
				CHANNELS 3 Zrotation Yrotation Xrotation
				JOINT LeftToe
				{
					OFFSET 0.026358 -0.055791 0.119288
					CHANNELS 3 Zrotation Yrotation Xrotation
					End Site
					{
						OFFSET 0.000000 0.000000 0.000000
					}
				}
			}
		}
	}
	JOINT RightUpLeg
	{
		OFFSET -0.067670 -0.090522 -0.004320
		CHANNELS 3 Zrotation Yrotation Xrotation
		JOINT RightLeg
		{
			OFFSET -0.038290 -0.382569 -0.008850
			CHANNELS 3 Zrotation Yrotation Xrotation
			JOINT RightFoot
			{
				OFFSET 0.015774 -0.398415 -0.042312
				CHANNELS 3 Zrotation Yrotation Xrotation
				JOINT RightToe
				{
					OFFSET -0.025372 -0.048144 0.123348
					CHANNELS 3 Zrotation Yrotation Xrotation
					End Site
					{
						OFFSET 0.000000 0.000000 0.000000
					}
				}
			}
		}
	}
	JOINT Spine
	{
		OFFSET -0.002533 0.108963 -0.026696
		CHANNELS 3 Zrotation Yrotation Xrotation
		JOINT Spine1
		{
			OFFSET 0.005487 0.135180 0.001092
			CHANNELS 3 Zrotation Yrotation Xrotation
			JOINT Spine2
			{
				OFFSET 0.001457 0.052922 0.025425
				CHANNELS 3 Zrotation Yrotation Xrotation
				JOINT Neck
				{
					OFFSET -0.002778 0.213870 -0.042857
					CHANNELS 3 Zrotation Yrotation Xrotation
					JOINT Head
					{
						OFFSET 0.005152 0.064970 0.051349
						CHANNELS 3 Zrotation Yrotation Xrotation
						End Site
						{
							OFFSET 0.000000 0.000000 0.000000
						}
					}
				}
				JOINT LeftShoulder
				{
					OFFSET 0.078845 0.121749 -0.034090
					CHANNELS 3 Zrotation Yrotation Xrotation
					JOINT LeftArm
					{
						OFFSET 0.090977 0.030469 -0.008868
						CHANNELS 3 Zrotation Yrotation Xrotation
						JOINT LeftForeArm
						{
							OFFSET 0.259612 -0.012772 -0.027456
							CHANNELS 3 Zrotation Yrotation Xrotation
							JOINT LeftHand
							{
								OFFSET 0.249234 0.008986 -0.001171
								CHANNELS 3 Zrotation Yrotation Xrotation
								End Site
								{
									OFFSET 0.000000 0.000000 0.000000
								}
							}
						}
					}
				}
				JOINT RightShoulder
				{
					OFFSET -0.081759 0.118833 -0.038615
					CHANNELS 3 Zrotation Yrotation Xrotation
					JOINT RightArm
					{
						OFFSET -0.096012 0.032551 -0.009143
						CHANNELS 3 Zrotation Yrotation Xrotation
						JOINT RightForeArm
						{
							OFFSET -0.253742 -0.013329 -0.021401
							CHANNELS 3 Zrotation Yrotation Xrotation
							JOINT RightHand
							{
								OFFSET -0.255298 0.007772 -0.005559
								CHANNELS 3 Zrotation Yrotation Xrotation
								End Site
								{
									OFFSET 0.000000 0.000000 0.000000
								}
							}
						}
					}
				}
			}
		}
	}
}
MOTION
Frames: 10
Frame Time: 0.050000
-0.221410 0.959767 1.772902 3.174358 50.551580 11.030709 5.729781 -4.595337 -28.313116 -6.590255 -2.118485 22.375407 5.754584 15.398605 7.242924 0.000000 0.000000 0.000000 4.130308 0.579774 -3.466917 -3.175237 0.066775 9.635704 1.426305 2.775173 0.321675 0.000000 0.000000 0.000000 -0.311078 -0.217225 4.414158 -2.464966 0.811349 -1.335151 1.802340 4.270099 9.333662 8.293459 1.886020 -27.122494 0.000000 0.000000 0.000000 -20.789737 -9.915124 -7.087015 -48.114663 -7.425027 -0.324791 -6.308337 -32.118184 0.092734 0.000000 0.000000 0.000000 13.715560 5.759879 7.955038 56.458588 26.616058 7.869938 -3.823534 34.506824 1.910261 0.000000 0.000000 0.000000 
-0.206753 0.954991 1.792950 3.261898 44.816480 11.267585 4.534103 -4.562453 -28.775223 -5.395910 -0.605965 12.168794 2.596307 11.033061 7.839624 0.000000 0.000000 0.000000 4.587511 0.284191 -1.142897 -5.505230 0.835525 8.534593 3.667488 8.582765 -1.289238 0.000000 0.000000 0.000000 -0.361837 -0.195353 4.235602 -2.475204 0.831493 -0.884810 2.160787 5.944604 8.803957 9.141950 1.201622 -27.152816 0.000000 0.000000 0.000000 -21.862178 -11.091672 -6.252176 -47.284162 -8.695171 0.352985 -3.732970 -30.640697 -0.307699 0.000000 0.000000 0.000000 15.829388 4.718443 7.732152 54.167868 26.335131 6.570203 -1.609314 35.328388 2.638044 0.000000 0.000000 0.000000 
-0.189858 0.946917 1.818814 3.963579 40.233744 10.328536 1.925883 -4.378511 -27.611069 -3.226354 -0.132044 4.613026 -1.053049 5.374981 8.649535 0.000000 0.000000 0.000000 3.898675 -0.348055 2.717550 -6.305789 1.097624 8.293674 5.020839 12.502147 -1.410330 0.000000 0.000000 0.000000 -1.004079 -0.220063 5.353898 -1.917930 0.872752 -2.100117 1.839437 7.264515 9.797737 9.391515 0.561639 -25.021251 0.000000 0.000000 0.000000 -20.765339 -10.919603 -5.532098 -48.171839 -10.688773 0.708445 -2.526762 -29.306161 -0.501181 0.000000 0.000000 0.000000 17.711759 4.895041 8.349266 52.805277 25.593466 5.312876 -1.209072 34.642652 2.572386 0.000000 0.000000 0.000000 
-0.171440 0.937406 1.851353 4.473933 36.763277 10.248002 0.020948 -4.635743 -27.966255 -2.444901 -0.136691 4.824721 -2.984930 2.095204 9.078846 0.000000 0.000000 0.000000 3.921265 -0.759803 4.898629 -6.776811 1.236995 9.764376 6.131093 15.772429 -1.482467 0.000000 0.000000 0.000000 -1.169558 -0.140127 4.304117 -2.032918 0.745603 -0.538118 1.241940 8.011997 8.667340 9.975623 -0.092053 -24.345085 0.000000 0.000000 0.000000 -18.820735 -9.409309 -4.919417 -49.784192 -11.769884 0.578970 -1.090975 -29.698152 -0.865426 0.000000 0.000000 0.000000 19.082006 4.414180 8.168474 53.323971 24.495753 4.664130 -1.548785 32.981224 2.280540 0.000000 0.000000 0.000000 
-0.152144 0.929964 1.891065 3.962084 32.145880 9.105521 0.148588 -4.099426 -26.883444 -3.163430 -0.239857 8.572093 -1.536813 4.917421 10.140942 0.000000 0.000000 0.000000 3.955086 -0.949759 5.817947 -7.652832 1.497225 14.249110 7.016202 17.854947 -0.022985 0.000000 0.000000 0.000000 -1.810860 -0.054312 3.159818 -2.710341 1.128044 -0.814463 2.325402 8.787816 9.619389 9.582026 -0.521009 -22.407563 0.000000 0.000000 0.000000 -19.149065 -10.157074 -4.058337 -48.276380 -11.511892 0.434725 -0.134923 -28.493611 -0.808726 0.000000 0.000000 0.000000 20.755263 4.601146 8.379606 52.803726 22.757988 3.258248 1.068739 32.786004 2.914627 0.000000 0.000000 0.000000 
-0.133745 0.929743 1.935894 4.367156 30.657536 8.320855 -0.393672 -3.639365 -24.894632 -3.045134 -0.530588 12.532849 -0.584743 5.421113 8.735264 0.000000 0.000000 0.000000 3.531606 -0.461009 3.211875 -6.760119 0.680350 25.998248 8.486568 19.557362 3.226326 0.000000 0.000000 0.000000 -2.918480 -0.003165 2.712559 -2.314957 0.927843 -0.248145 1.803330 7.760884 8.752245 9.471337 -0.789994 -22.000088 0.000000 0.000000 0.000000 -18.899874 -8.830295 -4.022140 -47.940817 -12.052418 0.575825 0.965731 -27.390960 -0.898233 0.000000 0.000000 0.000000 21.263691 3.270750 7.095290 54.472373 19.241775 1.902050 4.880707 31.185972 3.728972 0.000000 0.000000 0.000000 
-0.118823 0.933980 1.979861 4.381382 27.545127 7.551071 0.268046 -2.639901 -21.037778 -4.403413 -0.313495 13.192651 0.500086 5.849840 6.910168 0.000000 0.000000 0.000000 0.860598 0.546721 -5.039460 -4.284176 -2.471926 44.491288 10.089510 17.527950 11.229945 0.000000 0.000000 0.000000 -4.280135 0.035018 2.614025 -1.609783 0.632029 -0.013833 1.921188 7.058605 8.127357 10.391597 -2.042608 -20.326991 0.000000 0.000000 0.000000 -18.315901 -9.143688 -2.918662 -47.199726 -11.330285 0.170863 1.031843 -26.589686 -0.673462 0.000000 0.000000 0.000000 21.487041 3.135687 6.206914 54.899619 15.271519 0.276603 7.165271 31.407542 4.251016 0.000000 0.000000 0.000000 
-0.109048 0.939618 2.020653 3.682679 25.309151 6.045611 1.539897 -1.637374 -15.913166 -4.333945 -0.159210 11.622476 1.361916 6.964375 6.693397 0.000000 0.000000 0.000000 -1.194324 0.850584 -13.494479 -2.242830 -5.325425 57.086053 8.342979 12.979425 11.747269 0.000000 0.000000 0.000000 -3.417630 -0.011411 3.461232 -1.639783 0.692594 -0.166842 0.781427 5.029309 8.066102 10.009978 -2.261266 -20.028450 0.000000 0.000000 0.000000 -17.724605 -8.963448 -1.891501 -45.111954 -11.899793 0.147072 0.590926 -25.931716 -0.284294 0.000000 0.000000 0.000000 21.523739 3.065632 5.203156 55.991919 11.677409 -1.149520 8.397632 32.954493 4.779461 0.000000 0.000000 0.000000 
-0.103628 0.943726 2.060288 2.842994 23.808234 4.855890 2.557328 -1.012542 -11.314151 -3.718519 -0.121935 10.138812 2.876525 9.079423 6.204051 0.000000 0.000000 0.000000 -2.862652 0.594744 -22.581271 0.299464 -7.149281 61.566898 4.525026 7.365808 6.946194 0.000000 0.000000 0.000000 -2.705838 -0.097075 5.136624 -0.556730 0.285665 -0.840966 -0.541604 2.602269 7.989407 9.565763 -2.284362 -20.324245 0.000000 0.000000 0.000000 -17.588771 -8.542650 -1.252088 -43.832988 -12.626869 0.222356 1.011306 -25.621182 -0.172021 0.000000 0.000000 0.000000 21.105547 3.180537 4.362602 56.482308 9.634836 -1.940169 10.456716 32.041262 5.059462 0.000000 0.000000 0.000000 
-0.101903 0.944795 2.101477 1.209598 22.185917 3.396406 4.387868 -0.622740 -6.972728 -3.046819 -0.092558 8.556010 4.644095 11.550989 5.653321 0.000000 0.000000 0.000000 -4.604047 0.013762 -28.297379 3.080456 -6.752378 54.728662 -0.288489 -1.632426 3.008656 0.000000 0.000000 0.000000 -1.191790 -0.246881 6.392901 -1.200774 0.507944 0.068092 0.138825 0.238759 7.624570 8.025413 -1.606420 -21.383836 0.000000 0.000000 0.000000 -17.495185 -8.447788 -0.286126 -42.857972 -15.505392 0.880852 1.532649 -24.208276 -0.008367 0.000000 0.000000 0.000000 20.555921 3.140785 3.253203 56.734218 7.523426 -2.744812 12.056781 31.957124 5.308967 0.000000 0.000000 0.000000 
